<svg width="5335" height="2058" viewBox="0 0 5335 2058" fill="none" xmlns="http://www.w3.org/2000/svg">
<path d="M5103.77 883.961H5016.16V265.782H4799.06V188.875H5319.89V265.782H5103.77V883.961Z" fill="#06283D"/>
<path d="M3793.1 883.947L3709.37 668.801H3433.87L3351.12 883.947H3262.53L3534.14 185.94H3613L3883.63 883.947H3793.1ZM3605.21 380.642C3603.26 375.45 3600.02 366.04 3595.47 352.411C3590.93 338.781 3586.39 324.828 3581.84 310.55C3577.95 295.622 3574.71 284.265 3572.11 276.477C3568.86 289.457 3565.29 302.762 3561.4 316.391C3558.16 329.371 3554.59 341.377 3550.69 352.411C3547.45 363.444 3544.53 372.854 3541.93 380.642L3463.08 590.92H3683.09L3605.21 380.642ZM3435.82 47.702C3435.82 30.8278 3440.36 18.8212 3449.45 11.6821C3458.53 3.89405 3469.24 0 3481.57 0C3493.9 0 3504.61 3.89405 3513.7 11.6821C3522.78 18.8212 3527.33 30.8278 3527.33 47.702C3527.33 63.9271 3522.78 76.2583 3513.7 84.6953C3504.61 92.4834 3493.9 96.3775 3481.57 96.3775C3469.24 96.3775 3458.53 92.4834 3449.45 84.6953C3440.36 76.2583 3435.82 63.9271 3435.82 47.702ZM3618.84 47.702C3618.84 30.8278 3623.06 18.8212 3631.49 11.6821C3640.58 3.89405 3651.29 0 3663.62 0C3675.95 0 3686.66 3.89405 3695.75 11.6821C3704.83 18.8212 3709.37 30.8278 3709.37 47.702C3709.37 63.9271 3704.83 76.2583 3695.75 84.6953C3686.66 92.4834 3675.95 96.3775 3663.62 96.3775C3651.29 96.3775 3640.58 92.4834 3631.49 84.6953C3623.06 76.2583 3618.84 63.9271 3618.84 47.702Z" fill="#06283D"/>
<path d="M1976.93 516.934H2217.39V857.662C2179.75 869.993 2141.78 879.079 2103.49 884.921C2065.2 890.762 2021.71 893.682 1973.04 893.682C1901 893.682 1840.32 879.404 1790.99 850.848C1741.67 821.642 1704.02 780.43 1678.06 727.212C1652.75 673.344 1640.1 609.742 1640.1 536.404C1640.1 463.715 1654.37 400.762 1682.93 347.543C1711.49 294.325 1752.37 253.113 1805.59 223.907C1859.46 194.053 1924.36 179.126 2000.3 179.126C2039.24 179.126 2075.9 182.695 2110.3 189.835C2145.35 196.974 2177.8 207.033 2207.65 220.013L2174.55 295.947C2149.89 284.914 2121.98 275.503 2090.83 267.715C2060.33 259.927 2028.53 256.033 1995.43 256.033C1940.26 256.033 1892.88 267.391 1853.3 290.106C1813.71 312.821 1783.53 345.272 1762.76 387.457C1741.99 428.993 1731.61 478.642 1731.61 536.404C1731.61 591.57 1740.37 640.57 1757.89 683.404C1776.06 725.589 1804.3 758.689 1842.59 782.702C1880.88 806.066 1931.18 817.748 1993.48 817.748C2014.25 817.748 2032.42 817.099 2048 815.801C2064.22 813.854 2078.82 811.583 2091.81 808.987C2105.43 806.391 2118.09 803.795 2129.77 801.199V594.815H1976.93V516.934Z" fill="#06283D"/>
<path d="M535.052 883.931L451.331 668.786H175.827L93.0791 883.931H4.48975L276.099 185.925H354.953L625.589 883.931H535.052ZM347.165 380.627C345.218 375.435 341.973 366.024 337.43 352.395C332.887 338.766 328.344 324.812 323.801 310.534C319.907 295.607 316.662 284.249 314.066 276.461C310.821 289.441 307.251 302.746 303.357 316.375C300.112 329.355 296.543 341.362 292.649 352.395C289.404 363.428 286.483 372.839 283.887 380.627L205.033 590.905H425.046L347.165 380.627Z" fill="#06283D"/>
<path d="M4265.92 2052.15V1635.09H4318.49V2005.42H4500.73V2052.15H4265.92Z" fill="#06283D"/>
<path d="M3707.09 2052.15H3474.03V1635.09H3707.09V1681.24H3526.6V1811.49H3696.57V1857.05H3526.6V2006H3707.09V2052.15Z" fill="#06283D"/>
<path d="M2814.21 2052.15H2761.64V1681.24H2631.38V1635.09H2943.88V1681.24H2814.21V2052.15Z" fill="#06283D"/>
<path d="M2140.13 1843.05C2140.13 1875.37 2136.05 1904.77 2127.87 1931.25C2119.69 1957.34 2107.42 1979.92 2091.07 1999C2075.1 2018.08 2055.05 2032.69 2030.91 2042.81C2007.15 2052.94 1979.51 2058 1947.96 2058C1915.25 2058 1886.83 2052.94 1862.68 2042.81C1838.54 2032.3 1818.49 2017.69 1802.52 1999C1786.56 1979.92 1774.68 1957.14 1766.89 1930.66C1759.1 1904.18 1755.21 1874.78 1755.21 1842.46C1755.21 1799.63 1762.22 1762.25 1776.24 1730.31C1790.26 1698.38 1811.48 1673.46 1839.9 1655.55C1868.72 1637.64 1904.93 1628.68 1948.55 1628.68C1990.21 1628.68 2025.26 1637.64 2053.69 1655.55C2082.11 1673.07 2103.53 1697.99 2117.94 1730.31C2132.74 1762.25 2140.13 1799.82 2140.13 1843.05ZM1810.7 1843.05C1810.7 1878.09 1815.57 1908.27 1825.3 1933.58C1835.04 1958.89 1850.03 1978.36 1870.28 1991.99C1890.92 2005.62 1916.81 2012.44 1947.96 2012.44C1979.51 2012.44 2005.21 2005.62 2025.07 1991.99C2045.31 1978.36 2060.31 1958.89 2070.04 1933.58C2079.78 1908.27 2084.64 1878.09 2084.64 1843.05C2084.64 1790.48 2073.74 1749.39 2051.93 1719.8C2030.13 1689.82 1995.67 1674.82 1948.55 1674.82C1917.01 1674.82 1890.92 1681.64 1870.28 1695.27C1850.03 1708.51 1835.04 1727.78 1825.3 1753.09C1815.57 1778.02 1810.7 1808 1810.7 1843.05Z" fill="#06283D"/>
<path d="M1194.92 2052.15H1142.35V1857.64H928.571V2052.15H876.001V1635.09H928.571V1811.49H1142.35V1635.09H1194.92V2052.15Z" fill="#06283D"/>
<path fill-rule="evenodd" clip-rule="evenodd" d="M5334.83 1176L-3.40428e-06 1176L0 1137.06L5334.83 1137.06L5334.83 1176Z" fill="#06283D"/>
</svg>
